--------------------------------------------------------------------------------
                                                                                
           SSSSSSSSSSSSSSS       444444444                 AAA                  
         SS:::::::::::::::S     4::::::::4                A:::A                 
        S:::::SSSSSS::::::S    4:::::::::4               A:::::A                
        S:::::S     SSSSSSS   4::::44::::4              A:::::::A               
        S:::::S              4::::4 4::::4             A:::::::::A              
        S:::::S             4::::4  4::::4            A:::::A:::::A             
         S::::SSSS         4::::4   4::::4           A:::::A A:::::A            
          SS::::::SSSSS   4::::444444::::444        A:::::A   A:::::A           
            SSS::::::::SS 4::::::::::::::::4       A:::::A     A:::::A          
               SSSSSS::::S4444444444:::::444      A:::::AAAAAAAAA:::::A         
                    S:::::S         4::::4       A:::::::::::::::::::::A        
                    S:::::S         4::::4      A:::::AAAAAAAAAAAAA:::::A       
        SSSSSSS     S:::::S         4::::4     A:::::A             A:::::A      
        S::::::SSSSSS:::::S       44::::::44  A:::::A               A:::::A     
        S:::::::::::::::SS        4::::::::4 A:::::A                 A:::::A    
         SSSSSSSSSSSSSSS          4444444444AAAAAAA                   AAAAAAA   
                                                                                
                                                                                
---------------------------------------------------------------------------------

                 WWE.Final.Randy.Orton.VS.Cody.Rhodes.UNCENSORED                 

---------------------------------------------------------------------------------

Randy Orton faced Cody Rhodes in one of the most talked about matches on 
SmackDown this year.

However, the WWE decided to cut the post-match attack due to gratuitous scenes of 
a bloodied Cody Rhodes.

Are you still wondering what happened on Friday?

Well fear not, because this video footage, on what you missed has you covered.

This video footage will show you what the WWE did not want you to see!

Enjoy!

General
Complete name                    : WWE.Final.Randy.Orton.VS.Cody.Rhodes.UNCENSORED.mp4
Format                           : MPEG-4
Format profile                   : Base Media / Version 2
Codec ID                         : mp42
File size                        : 142 MiB
Duration                         : 6mn 25s
Overall bit rate mode            : Variable
Overall bit rate                 : 3 090 Kbps
Encoded date                     : UTC 2011-09-23 07:23:59
Tagged date                      : UTC 2011-09-23 07:23:59

Video
ID                               : 1
Format                           : AVC
Format/Info                      : Advanced Video Codec
Format profile                   : High@L3.1
Format settings, CABAC           : Yes
Format settings, ReFrames        : 1 frame
Codec ID                         : avc1
Codec ID/Info                    : Advanced Video Coding
Duration                         : 6mn 25s
Bit rate                         : 3 007 Kbps
Maximum bit rate                 : 5 154 Kbps
Width                            : 1 280 pixels
Height                           : 720 pixels
Display aspect ratio             : 16:9
Frame rate mode                  : Variable
Frame rate                       : 29.970 fps
Minimum frame rate               : 29.412 fps
Maximum frame rate               : 30.303 fps
Color space                      : YUV
Chroma subsampling               : 4:2:0
Bit depth                        : 8 bits
Scan type                        : Progressive
Bits/(Pixel*Frame)               : 0.109
Stream size                      : 138 MiB (97%)
Tagged date                      : UTC 2011-09-23 07:24:01

Audio
ID                               : 2
Format                           : AAC
Format/Info                      : Advanced Audio Codec
Format profile                   : LC
Codec ID                         : 40
Duration                         : 6mn 25s
Bit rate mode                    : Variable
Bit rate                         : 76.0 Kbps
Maximum bit rate                 : 87.6 Kbps
Channel(s)                       : 1 channel
Channel positions                : Front: C
Sampling rate                    : 44.1 KHz
Compression mode                 : Lossy
Stream size                      : 3.49 MiB (2%)
Title                            : IsoMedia File Produced by Google, 5-11-2011
Encoded date                     : UTC 2011-09-23 07:24:00
Tagged date                      : UTC 2011-09-23 07:24:01

---------------------------------------------------------------------------------